<svg width="40" height="40" viewBox="0 0 40 40" fill="none" xmlns="http://www.w3.org/2000/svg">
<g clip-path="url(#clip0_117_2749)">
<path d="M19.9993 36.3334C27.026 36.3334 32.966 30.7667 34.911 24.375C35.3477 22.9384 38.3327 22.9384 38.3327 19.8334C38.3327 16.7284 35.3194 16.55 34.8319 15.04C32.8094 8.77921 26.9327 3.33337 19.9993 3.33337C13.0618 3.33337 7.18268 8.78337 5.16352 15.05C4.67852 16.5584 1.66602 16.675 1.66602 19.8334C1.66602 22.9917 4.65935 22.9917 5.11185 24.4517C7.08018 30.8034 13.001 36.3334 19.9993 36.3334Z" stroke="#018CB5" stroke-width="4"/>
<path d="M34.8325 15.04C32.81 8.77921 26.9333 3.33337 20 3.33337" stroke="#018CB5" stroke-width="4" stroke-linecap="round"/>
<path d="M15.9154 18.0001C15.9154 18.6884 15.7287 19.2934 15.4487 19.7134C15.1662 20.1367 14.8229 20.3334 14.4987 20.3334C14.1754 20.3334 13.832 20.1367 13.5487 19.7134C13.2687 19.2934 13.082 18.6884 13.082 18.0001C13.082 17.3109 13.2687 16.7067 13.5487 16.2867C13.832 15.8634 14.1754 15.6667 14.4987 15.6667C14.8229 15.6667 15.1662 15.8634 15.4487 16.2867C15.7287 16.7067 15.9154 17.3117 15.9154 18.0001ZM26.9154 18.0001C26.9154 18.6884 26.7287 19.2934 26.4487 19.7134C26.1662 20.1367 25.822 20.3334 25.4987 20.3334C25.1754 20.3334 24.8312 20.1367 24.5487 19.7134C24.2687 19.2934 24.082 18.6884 24.082 18.0001C24.082 17.3109 24.2687 16.7067 24.5487 16.2867C24.8312 15.8634 25.1754 15.6667 25.4987 15.6667C25.822 15.6667 26.1662 15.8634 26.4487 16.2867C26.7287 16.7067 26.9154 17.3117 26.9154 18.0001Z" fill="#018CB5" stroke="#018CB5"/>
<path fill-rule="evenodd" clip-rule="evenodd" d="M15.4141 26.4584C17.0224 27.5417 18.5541 28.0834 20.0066 28.0834C21.4582 28.0834 22.8974 27.5425 24.3232 26.4625" fill="#018CB5"/>
<path d="M15.4141 26.4584C17.0224 27.5417 18.5541 28.0834 20.0066 28.0834C21.4582 28.0834 22.8974 27.5426 24.3232 26.4626M26.4391 5.16675C26.6624 6.77841 26.1716 7.95591 24.9649 8.69925C23.7591 9.44258 21.7991 9.79091 19.0857 9.74425" stroke="#018CB5" stroke-width="4" stroke-linecap="round"/>
</g>
<defs>
<clipPath id="clip0_117_2749">
<rect width="40" height="40" fill="white"/>
</clipPath>
</defs>
</svg>
