<svg width="51" height="50" viewBox="0 0 51 50" fill="none" xmlns="http://www.w3.org/2000/svg">
<path fill-rule="evenodd" clip-rule="evenodd" d="M1.62868 0.961932C0.75 1.84061 0.75 3.25482 0.75 6.08325V43.9166C0.75 46.745 0.75 48.1592 1.62868 49.0379C2.50736 49.9166 3.92157 49.9166 6.75 49.9166H44.75C47.5784 49.9166 48.9926 49.9166 49.8713 49.0379C50.75 48.1592 50.75 46.745 50.75 43.9166V6.08325C50.75 3.25482 50.75 1.84061 49.8713 0.961932C48.9926 0.083252 47.5784 0.083252 44.75 0.083252H6.75C3.92157 0.083252 2.50736 0.083252 1.62868 0.961932ZM9.73287 13.561C9.31295 13.2022 8.68173 13.2518 8.323 13.6718C7.96427 14.0917 8.01388 14.7229 8.43379 15.0816L24.4509 28.7648C25.1991 29.4039 26.3009 29.4039 27.0491 28.7648L43.0662 15.0816C43.4861 14.7229 43.5357 14.0917 43.177 13.6718C42.8183 13.2518 42.187 13.2022 41.7671 13.561L25.75 27.2442L9.73287 13.561Z" fill="white"/>
</svg>
