<svg width="32" height="32" viewBox="0 0 32 32" fill="none" xmlns="http://www.w3.org/2000/svg">
<path d="M15.9998 18.8931C13.1598 18.8931 10.8398 16.5864 10.8398 13.7331C10.8398 10.8798 13.1598 8.58643 15.9998 8.58643C18.8398 8.58643 21.1598 10.8931 21.1598 13.7464C21.1598 16.5998 18.8398 18.8931 15.9998 18.8931ZM15.9998 10.5864C14.2665 10.5864 12.8398 11.9998 12.8398 13.7464C12.8398 15.4931 14.2532 16.9064 15.9998 16.9064C17.7465 16.9064 19.1598 15.4931 19.1598 13.7464C19.1598 11.9998 17.7332 10.5864 15.9998 10.5864Z" fill="#2998FF"/>
<path d="M16.0002 30.3465C14.0269 30.3465 12.0402 29.5998 10.4936 28.1198C6.56023 24.3332 2.21357 18.2932 3.85357 11.1065C5.33357 4.5865 11.0269 1.6665 16.0002 1.6665C16.0002 1.6665 16.0002 1.6665 16.0136 1.6665C20.9869 1.6665 26.6802 4.5865 28.1602 11.1198C29.7869 18.3065 25.4402 24.3332 21.5069 28.1198C19.9602 29.5998 17.9736 30.3465 16.0002 30.3465ZM16.0002 3.6665C12.1202 3.6665 7.13357 5.73317 5.81357 11.5465C4.37357 17.8265 8.32023 23.2398 11.8936 26.6665C14.2002 28.8932 17.8136 28.8932 20.1202 26.6665C23.6802 23.2398 27.6269 17.8265 26.2136 11.5465C24.8802 5.73317 19.8802 3.6665 16.0002 3.6665Z" fill="#2998FF"/>
</svg>
