<svg width="29" height="28" viewBox="0 0 29 28" fill="none" xmlns="http://www.w3.org/2000/svg">
<path d="M20.334 24.7917H8.66732C4.40898 24.7917 1.95898 22.3417 1.95898 18.0834V9.91671C1.95898 5.65837 4.40898 3.20837 8.66732 3.20837H20.334C24.5923 3.20837 27.0423 5.65837 27.0423 9.91671V18.0834C27.0423 22.3417 24.5923 24.7917 20.334 24.7917ZM8.66732 4.95837C5.33065 4.95837 3.70898 6.58004 3.70898 9.91671V18.0834C3.70898 21.42 5.33065 23.0417 8.66732 23.0417H20.334C23.6707 23.0417 25.2923 21.42 25.2923 18.0834V9.91671C25.2923 6.58004 23.6707 4.95837 20.334 4.95837H8.66732Z" fill="#2998FF"/>
<path d="M14.5006 15.015C13.5206 15.015 12.5289 14.7116 11.7706 14.0933L8.11889 11.1766C7.74555 10.8733 7.67556 10.325 7.97889 9.95163C8.28223 9.5783 8.83056 9.5083 9.2039 9.81164L12.8556 12.7283C13.7422 13.44 15.2472 13.44 16.1339 12.7283L19.7856 9.81164C20.1589 9.5083 20.7189 9.56663 21.0106 9.95163C21.3139 10.325 21.2556 10.885 20.8706 11.1766L17.2189 14.0933C16.4722 14.7116 15.4806 15.015 14.5006 15.015Z" fill="#2998FF"/>
</svg>
