<svg width="45" height="45" viewBox="0 0 45 45" fill="none" xmlns="http://www.w3.org/2000/svg">
<path d="M2.67962 8.92564L10.3982 1.20711C10.7887 0.816582 11.4218 0.816582 11.8124 1.20711L20.0824 9.4771C20.4729 9.86763 20.4729 10.5008 20.0824 10.8913L14.5456 16.4281C13.9369 17.0368 13.786 17.9667 14.171 18.7367L14.9398 20.2743C17.1653 24.7254 20.7746 28.3347 25.2257 30.5602L26.7633 31.329C27.5333 31.714 28.4632 31.5631 29.0719 30.9544L34.6087 25.4176C34.9992 25.0271 35.6324 25.0271 36.0229 25.4176L44.2929 33.6876C44.6834 34.0782 44.6834 34.7113 44.2929 35.1018L36.5744 42.8204C34.463 44.9317 31.1204 45.1693 28.7317 43.3777L16.1549 33.9451C14.4114 32.6375 12.8625 31.0886 11.5549 29.3451L2.12226 16.7683C0.330722 14.3796 0.568272 11.037 2.67962 8.92564Z" fill="white"/>
</svg>
