<svg width="14" height="34" viewBox="0 0 14 34" fill="none" xmlns="http://www.w3.org/2000/svg">
<path d="M2.00065 4.00069C2.00065 2.15069 3.48398 0.667358 5.33398 0.667358C7.18398 0.667358 8.66732 2.15069 8.66732 4.00069C8.66732 5.85069 7.18398 7.33402 5.33398 7.33402C3.48398 7.33402 2.00065 5.85069 2.00065 4.00069ZM13.6673 19.0007C13.6598 17.933 13.3402 16.8909 12.7479 16.0025C12.1557 15.1141 11.3166 14.4183 10.334 14.0007C10.334 11.1507 7.96732 8.86736 5.06732 9.00069C2.36732 9.15069 0.333984 11.5674 0.333984 14.2674V24.0007C0.333984 24.9174 1.08398 25.6674 2.00065 25.6674H3.66732V31.5007C3.66732 32.884 4.78398 34.0007 6.16732 34.0007C7.55065 34.0007 8.66732 32.884 8.66732 31.5007V25.6674H12.0007C12.9173 25.6674 13.6673 24.9174 13.6673 24.0007V19.0007Z" fill="black"/>
</svg>
