<svg width="30" height="29" viewBox="0 0 30 29" fill="none" xmlns="http://www.w3.org/2000/svg">
<path fill-rule="evenodd" clip-rule="evenodd" d="M9.16732 6.83402C10.0514 6.83402 10.8992 6.48284 11.5243 5.85771C12.1495 5.23259 12.5007 4.38475 12.5007 3.50069C12.5007 2.61664 12.1495 1.76879 11.5243 1.14367C10.8992 0.518548 10.0514 0.167358 9.16732 0.167358C8.28326 0.167358 7.43542 0.518548 6.81029 1.14367C6.18517 1.76879 5.83398 2.61664 5.83398 3.50069C5.83398 4.38475 6.18517 5.23259 6.81029 5.85771C7.43542 6.48284 8.28326 6.83402 9.16732 6.83402ZM9.16732 5.16736C9.60935 5.16736 10.0333 4.99176 10.3458 4.6792C10.6584 4.36664 10.834 3.94272 10.834 3.50069C10.834 3.05866 10.6584 2.63474 10.3458 2.32218C10.0333 2.00962 9.60935 1.83403 9.16732 1.83403C8.72529 1.83403 8.30137 2.00962 7.98881 2.32218C7.67625 2.63474 7.50065 3.05866 7.50065 3.50069C7.50065 3.94272 7.67625 4.36664 7.98881 4.6792C8.30137 4.99176 8.72529 5.16736 9.16732 5.16736Z" fill="#018CB5"/>
<path d="M12.4993 26.0007V22.609L14.1659 24.9899V26.0007C14.1663 26.5379 13.9935 27.0609 13.6733 27.4922C13.3532 27.9235 12.9026 28.2402 12.3883 28.3955C11.874 28.5507 11.3235 28.5361 10.8181 28.3539C10.3128 28.1718 9.87955 27.8317 9.58261 27.384C9.28601 27.8322 8.85281 28.1729 8.34729 28.3555C7.84177 28.538 7.29087 28.5527 6.77632 28.3974C6.26178 28.2421 5.81101 27.9251 5.49089 27.4933C5.17078 27.0616 4.99838 26.5382 4.99928 26.0007V16.5357C4.58434 16.759 4.11472 16.8605 3.64459 16.8285C3.17445 16.7965 2.72294 16.6323 2.3421 16.3547C1.96127 16.0772 1.66663 15.6977 1.49214 15.26C1.31766 14.8222 1.27045 14.3441 1.35595 13.8807C1.55095 12.8249 1.74762 11.9024 1.99678 11.1457C2.24095 10.3999 2.61345 9.56152 3.30928 8.88902C4.06928 8.15652 4.94262 7.87569 5.69011 7.76153C6.30595 7.66653 6.99261 7.66736 7.55928 7.66736H7.59095L9.89095 9.33403H7.59095C6.98678 9.33403 6.42011 9.33569 5.94178 9.40903C5.40845 9.49069 4.90011 9.67153 4.46678 10.089C4.05511 10.4865 3.79011 11.0265 3.58011 11.6657C3.36928 12.3082 3.18845 13.1365 2.99512 14.1824C2.955 14.3997 3.00288 14.6241 3.12822 14.8062C3.25355 14.9883 3.44608 15.1131 3.66345 15.1532C3.88082 15.1933 4.10521 15.1454 4.28728 15.0201C4.46935 14.8948 4.59417 14.7022 4.63428 14.4849C4.77595 13.7165 4.90262 13.1182 5.02762 12.649L6.66595 12.8632V26.0007C6.66364 26.2193 6.74735 26.4301 6.89902 26.5876C7.05069 26.745 7.25817 26.8366 7.47673 26.8425C7.69529 26.8484 7.90742 26.7682 8.06737 26.6191C8.22732 26.4701 8.32228 26.2641 8.33178 26.0457L8.78095 17.6674H10.3851L10.8326 26.0457C10.8356 26.1551 10.86 26.2629 10.9047 26.3629C10.9493 26.4629 11.0131 26.5531 11.0926 26.6284C11.1721 26.7037 11.2656 26.7626 11.3678 26.8017C11.4701 26.8409 11.579 26.8595 11.6884 26.8565C11.7979 26.8536 11.9057 26.8291 12.0056 26.7845C12.1056 26.7399 12.1958 26.676 12.2711 26.5965C12.3464 26.5171 12.4053 26.4235 12.4445 26.3213C12.4836 26.2191 12.5022 26.1101 12.4993 26.0007Z" fill="#018CB5"/>
<path d="M9.89167 9.33403H10.865L10.8708 9.33486H10.8767C11.705 9.35152 12.4492 9.63819 13.07 10.1074L13.9475 8.67153C13.0406 8.01827 11.951 7.66695 10.8333 7.66736H7.59167L9.89167 9.33403ZM2.08333 16.834C1.5308 16.834 1.0009 17.0535 0.610194 17.4442C0.219493 17.8349 0 18.3648 0 18.9174V19.5865C0 19.8075 0.0877975 20.0195 0.244078 20.1758C0.400358 20.3321 0.61232 20.4199 0.833333 20.4199C1.05435 20.4199 1.26631 20.3321 1.42259 20.1758C1.57887 20.0195 1.66667 19.8075 1.66667 19.5865V18.9174C1.66667 18.8069 1.71056 18.7009 1.78871 18.6227C1.86685 18.5446 1.97283 18.5007 2.08333 18.5007C2.19384 18.5007 2.29982 18.5446 2.37796 18.6227C2.4561 18.7009 2.5 18.8069 2.5 18.9174V26.834C2.5 27.055 2.5878 27.267 2.74408 27.4233C2.90036 27.5796 3.11232 27.6674 3.33333 27.6674C3.55435 27.6674 3.76631 27.5796 3.92259 27.4233C4.07887 27.267 4.16667 27.055 4.16667 26.834V18.9174C4.16667 18.3648 3.94717 17.8349 3.55647 17.4442C3.16577 17.0535 2.63587 16.834 2.08333 16.834ZM25.8333 18.9174C25.8333 18.3648 26.0528 17.8349 26.4435 17.4442C26.8342 17.0535 27.3641 16.834 27.9167 16.834C28.4692 16.834 28.9991 17.0535 29.3898 17.4442C29.7805 17.8349 30 18.3648 30 18.9174V26.834C30 27.055 29.9122 27.267 29.7559 27.4233C29.5996 27.5796 29.3877 27.6674 29.1667 27.6674C28.9457 27.6674 28.7337 27.5796 28.5774 27.4233C28.4211 27.267 28.3333 27.055 28.3333 26.834V18.9174C28.3333 18.8069 28.2894 18.7009 28.2113 18.6227C28.1332 18.5446 28.0272 18.5007 27.9167 18.5007C27.8062 18.5007 27.7002 18.5446 27.622 18.6227C27.5439 18.7009 27.5 18.8069 27.5 18.9174V19.5865C27.5 19.8075 27.4122 20.0195 27.2559 20.1758C27.0996 20.3321 26.8877 20.4199 26.6667 20.4199C26.4457 20.4199 26.2337 20.3321 26.0774 20.1758C25.9211 20.0195 25.8333 19.8075 25.8333 19.5865V18.9174Z" fill="#018CB5"/>
<path fill-rule="evenodd" clip-rule="evenodd" d="M20.0002 6.47569C21.841 6.47569 23.3335 5.06402 23.3335 3.32152C23.3335 1.57986 21.841 0.167358 20.0002 0.167358C18.1585 0.167358 16.6669 1.57986 16.6669 3.32152C16.6669 5.06319 18.1585 6.47652 20.0002 6.47652M20.0002 4.89986C20.9202 4.89986 21.6669 4.19403 21.6669 3.32236C21.6669 2.45153 20.9202 1.74569 20.0002 1.74569C19.0794 1.74569 18.3335 2.45153 18.3335 3.32236C18.3335 4.19403 19.0794 4.89986 20.0002 4.89986ZM21.2327 8.05319C21.591 8.05319 22.216 8.09069 22.8719 8.40319C23.9802 8.93152 24.6135 9.79652 24.9894 10.5615L25.0585 10.7015C25.1894 10.9665 25.2252 11.039 25.2444 11.1157C25.251 11.1449 25.256 11.174 25.2619 11.2157C25.2735 11.2882 25.291 11.3974 25.3377 11.604C25.4844 12.2432 25.4877 12.2599 25.571 12.664C25.6502 13.0499 25.806 13.8065 26.246 15.879C26.5177 17.1599 25.6402 18.4074 24.2869 18.664C24.0702 18.7057 23.8535 18.719 23.6435 18.7065L24.4652 22.3232C24.5894 23.0007 24.2285 23.7399 23.4569 24.0007C22.7002 24.2557 21.3294 24.614 19.5835 24.614C17.8369 24.614 16.4669 24.2557 15.7102 24.0007C15.3669 23.8914 15.0752 23.6609 14.8896 23.3521C14.704 23.0434 14.6373 22.6776 14.7019 22.3232L15.1519 19.879C14.9365 19.8912 14.7204 19.8769 14.5085 19.8365C13.1544 19.579 12.2777 18.3324 12.5494 17.0507C12.9885 14.979 13.1444 14.2232 13.2244 13.8365C13.3077 13.4324 13.311 13.4149 13.4569 12.7757C13.611 12.1024 13.8177 11.2924 14.1777 10.5615C14.5527 9.79736 15.186 8.93152 16.2952 8.40319C16.951 8.09069 17.576 8.05319 17.9344 8.05319H20.8469H21.2327ZM21.2327 9.63069H17.9335C17.6969 9.63069 17.3685 9.65736 17.0435 9.81236C16.3827 10.1274 15.9685 10.6557 15.6877 11.2274C15.4127 11.7865 15.236 12.4474 15.0852 13.109C14.941 13.7374 14.9394 13.7474 14.861 14.1274L14.8594 14.1374C14.6372 15.2128 14.4117 16.2875 14.1827 17.3615C14.0919 17.7882 14.3844 18.204 14.836 18.2899C15.0444 18.3299 15.2519 18.2915 15.4235 18.1957L16.4119 13.0507L18.0519 13.3332L17.5294 16.0499L17.5494 16.0282L16.3527 22.5424C16.9969 22.7524 18.1385 23.0365 19.5827 23.0365C21.0269 23.0365 22.1685 22.7532 22.8127 22.5424L21.6152 16.0257L21.6327 16.0349L21.1135 13.3332L22.7535 13.0507L23.3952 17.0374C23.5619 17.1232 23.7585 17.1557 23.9577 17.1182C24.4085 17.0324 24.701 16.6165 24.6102 16.1899C24.1702 14.1149 24.0144 13.3549 23.9335 12.9649L23.9319 12.9565C23.8535 12.5757 23.8519 12.5657 23.7085 11.9374C23.6469 11.6674 23.6419 11.5924 23.641 11.5607C23.641 11.5524 23.641 11.5465 23.6394 11.5415C23.6369 11.5315 23.6319 11.5232 23.6177 11.4982C23.5977 11.4607 23.5577 11.3882 23.4777 11.2265C23.1969 10.6557 22.7827 10.1265 22.1219 9.81152C21.8421 9.68561 21.5378 9.62383 21.231 9.63069" fill="#018CB5"/>
<path d="M15.834 27.3173V25.4023C16.9215 25.544 17.9232 25.6323 18.9023 25.6665L18.2832 27.6523C18.1065 28.2165 17.5198 28.5723 16.9048 28.4882C16.2898 28.4048 15.834 27.9048 15.834 27.3173ZM20.8923 27.6765L20.2215 25.6815C21.2618 25.665 22.3006 25.596 23.334 25.4748V27.3182C23.334 27.9015 22.884 28.3973 22.2757 28.4865C21.6673 28.5765 21.0798 28.2323 20.8923 27.6765Z" fill="#018CB5"/>
</svg>
