<svg width="32" height="32" viewBox="0 0 32 32" fill="none" xmlns="http://www.w3.org/2000/svg">
<path d="M19.9997 30.3332H11.9997C6.11967 30.3332 4.33301 28.5465 4.33301 22.6665V9.33317C4.33301 3.45317 6.11967 1.6665 11.9997 1.6665H19.9997C25.8797 1.6665 27.6663 3.45317 27.6663 9.33317V22.6665C27.6663 28.5465 25.8797 30.3332 19.9997 30.3332ZM11.9997 3.6665C7.22634 3.6665 6.33301 4.57317 6.33301 9.33317V22.6665C6.33301 27.4265 7.22634 28.3332 11.9997 28.3332H19.9997C24.773 28.3332 25.6663 27.4265 25.6663 22.6665V9.33317C25.6663 4.57317 24.773 3.6665 19.9997 3.6665H11.9997Z" fill="#2998FF"/>
<path d="M18.6663 8.3335H13.333C12.7863 8.3335 12.333 7.88016 12.333 7.3335C12.333 6.78683 12.7863 6.3335 13.333 6.3335H18.6663C19.213 6.3335 19.6663 6.78683 19.6663 7.3335C19.6663 7.88016 19.213 8.3335 18.6663 8.3335Z" fill="#2998FF"/>
<path d="M16.0003 26.48C14.3069 26.48 12.9336 25.1067 12.9336 23.4133C12.9336 21.72 14.3069 20.3467 16.0003 20.3467C17.6936 20.3467 19.0669 21.72 19.0669 23.4133C19.0669 25.1067 17.6936 26.48 16.0003 26.48ZM16.0003 22.3333C15.4136 22.3333 14.9336 22.8133 14.9336 23.4C14.9336 23.9867 15.4136 24.4667 16.0003 24.4667C16.5869 24.4667 17.0669 23.9867 17.0669 23.4C17.0669 22.8133 16.5869 22.3333 16.0003 22.3333Z" fill="#2998FF"/>
</svg>
