<svg width="41" height="41" viewBox="0 0 41 41" fill="none" xmlns="http://www.w3.org/2000/svg">
<path fill-rule="evenodd" clip-rule="evenodd" d="M38.1744 12.8641C38.1744 10.1576 38.1744 8.80242 37.5474 7.83085C37.2759 7.4097 36.9269 7.04812 36.5205 6.76676C35.7 6.19808 34.5967 6.12676 32.5856 6.11904C32.593 6.68001 32.593 7.26796 32.593 7.87326V10.4545H34.4535C34.8236 10.4545 35.1785 10.6068 35.4402 10.8779C35.7018 11.1491 35.8488 11.5168 35.8488 11.9002C35.8488 12.2837 35.7018 12.6514 35.4402 12.9226C35.1785 13.1937 34.8236 13.346 34.4535 13.346H32.593V16.2376H34.4535C34.8236 16.2376 35.1785 16.3899 35.4402 16.6611C35.7018 16.9322 35.8488 17.2999 35.8488 17.6834C35.8488 18.0668 35.7018 18.4346 35.4402 18.7057C35.1785 18.9768 34.8236 19.1292 34.4535 19.1292H32.593V22.0207H34.4535C34.8236 22.0207 35.1785 22.1731 35.4402 22.4442C35.7018 22.7153 35.8488 23.0831 35.8488 23.4665C35.8488 23.85 35.7018 24.2177 35.4402 24.4888C35.1785 24.76 34.8236 24.9123 34.4535 24.9123H32.593V37.4424H29.8023V8.04483C29.8023 4.40916 29.8023 2.59326 28.7121 1.46362C27.6219 0.333984 25.8693 0.333984 22.3605 0.333984H18.6395C15.1307 0.333984 13.3781 0.333984 12.2879 1.46362C11.1977 2.59326 11.1977 4.40916 11.1977 8.04483V37.4424H8.40698V24.9123H6.54651C6.17644 24.9123 5.82153 24.76 5.55985 24.4888C5.29817 24.2177 5.15116 23.85 5.15116 23.4665C5.15116 23.0831 5.29817 22.7153 5.55985 22.4442C5.82153 22.1731 6.17644 22.0207 6.54651 22.0207H8.40698V19.1292H6.54651C6.17644 19.1292 5.82153 18.9768 5.55985 18.7057C5.29817 18.4346 5.15116 18.0668 5.15116 17.6834C5.15116 17.2999 5.29817 16.9322 5.55985 16.6611C5.82153 16.3899 6.17644 16.2376 6.54651 16.2376H8.40698V13.346H6.54651C6.17644 13.346 5.82153 13.1937 5.55985 12.9226C5.29817 12.6514 5.15116 12.2837 5.15116 11.9002C5.15116 11.5168 5.29817 11.1491 5.55985 10.8779C5.82153 10.6068 6.17644 10.4545 6.54651 10.4545H8.40698V7.87133C8.40698 7.26796 8.40698 6.68001 8.41442 6.11712C6.40326 6.12676 5.3 6.19808 4.47953 6.76676C4.07308 7.04812 3.7241 7.4097 3.45256 7.83085C2.82558 8.80242 2.82558 10.1576 2.82558 12.8641V37.4424H1.89535C1.52528 37.4424 1.17037 37.5947 0.908688 37.8659C0.64701 38.137 0.5 38.5048 0.5 38.8882C0.5 39.2716 0.64701 39.6394 0.908688 39.9105C1.17037 40.1817 1.52528 40.334 1.89535 40.334H39.1047C39.4747 40.334 39.8296 40.1817 40.0913 39.9105C40.353 39.6394 40.5 39.2716 40.5 38.8882C40.5 38.5048 40.353 38.137 40.0913 37.8659C39.8296 37.5947 39.4747 37.4424 39.1047 37.4424H38.1744V12.8641ZM20.5 4.67133C20.8701 4.67133 21.225 4.82366 21.4867 5.09479C21.7483 5.36593 21.8953 5.73367 21.8953 6.11712V8.52676H24.2209C24.591 8.52676 24.9459 8.67908 25.2076 8.95022C25.4693 9.22135 25.6163 9.58909 25.6163 9.97254C25.6163 10.356 25.4693 10.7237 25.2076 10.9949C24.9459 11.266 24.591 11.4183 24.2209 11.4183H21.8953V13.828C21.8953 14.2114 21.7483 14.5791 21.4867 14.8503C21.225 15.1214 20.8701 15.2737 20.5 15.2737C20.1299 15.2737 19.775 15.1214 19.5133 14.8503C19.2517 14.5791 19.1047 14.2114 19.1047 13.828V11.4183H16.7791C16.409 11.4183 16.0541 11.266 15.7924 10.9949C15.5307 10.7237 15.3837 10.356 15.3837 9.97254C15.3837 9.58909 15.5307 9.22135 15.7924 8.95022C16.0541 8.67908 16.409 8.52676 16.7791 8.52676H19.1047V6.11712C19.1047 5.73367 19.2517 5.36593 19.5133 5.09479C19.775 4.82366 20.1299 4.67133 20.5 4.67133ZM15.3837 19.6111C15.3837 19.2276 15.5307 18.8599 15.7924 18.5888C16.0541 18.3176 16.409 18.1653 16.7791 18.1653H24.2209C24.591 18.1653 24.9459 18.3176 25.2076 18.5888C25.4693 18.8599 25.6163 19.2276 25.6163 19.6111C25.6163 19.9945 25.4693 20.3623 25.2076 20.6334C24.9459 20.9046 24.591 21.0569 24.2209 21.0569H16.7791C16.409 21.0569 16.0541 20.9046 15.7924 20.6334C15.5307 20.3623 15.3837 19.9945 15.3837 19.6111ZM15.3837 25.3942C15.3837 25.0108 15.5307 24.643 15.7924 24.3719C16.0541 24.1008 16.409 23.9484 16.7791 23.9484H24.2209C24.591 23.9484 24.9459 24.1008 25.2076 24.3719C25.4693 24.643 25.6163 25.0108 25.6163 25.3942C25.6163 25.7777 25.4693 26.1454 25.2076 26.4165C24.9459 26.6877 24.591 26.84 24.2209 26.84H16.7791C16.409 26.84 16.0541 26.6877 15.7924 26.4165C15.5307 26.1454 15.3837 25.7777 15.3837 25.3942ZM20.5 31.6593C20.8701 31.6593 21.225 31.8116 21.4867 32.0827C21.7483 32.3539 21.8953 32.7216 21.8953 33.1051V37.4424H19.1047V33.1051C19.1047 32.7216 19.2517 32.3539 19.5133 32.0827C19.775 31.8116 20.1299 31.6593 20.5 31.6593Z" fill="black"/>
</svg>
